#!OML:ASF H:\MichaelJackson\Top Level 1\Subject 1\Session 1\male.ASF
:FULLY-SPECIFIED
:DEGREES
2150
root 9.87535 16.6581 36.4122 -359.734 61.9717 349.954
lowerback -2.45207 -4.66359 3.38872
upperback -1.02279 -6.28683 -0.670626
thorax -0.121415 -3.16005 -2.69397
lowerneck -3.16808 -4.93763 1.36197
upperneck -2.02027 -6.5686 4.99138
head 0.0325144 -3.27195 1.23589
rclavicle 4.3832e-014 -7.95139e-015
rhumerus 10.7354 -22.8706 -0.99869
rradius 36.1968
rwrist -11.3429
rhand -36.6441 -39.6166
rfingers 7.12502
rthumb -9.73123 -69.3717
lclavicle 4.3832e-014 -7.95139e-015
lhumerus -47.2363 -24.1825 110.122
lradius 50.9268
lwrist 21.4138
lhand 24.3282 28.945
lfingers 7.12502
lthumb 48.5437 50.9001
rfemur -12.9545 -0.585671 14.1276
rtibia 29.6339
rfoot -14.7846 -22.5689
rtoes -19.1586
lfemur -22.0804 5.48753 1.03948
ltibia 31.4584
lfoot -11.0521 -2.28894
ltoes 5.20457
2151
root 9.87012 16.6633 36.4369 -359.749 61.8978 349.942
lowerback -2.63205 -4.6815 3.30518
upperback -0.981877 -6.31565 -0.587518
thorax 0.0374454 -3.17018 -2.58317
lowerneck -3.34819 -4.81223 1.26566
upperneck -1.5648 -6.42815 4.69679
head 0.191817 -3.19134 1.15031
rclavicle -5.45664e-014 9.54166e-015
rhumerus 11.5495 -23.4569 -1.62912
rradius 35.7882
rwrist -7.23779
rhand -35.9365 -41.4629
rfingers 7.12502
rthumb -9.04853 -71.2488
lclavicle -5.45664e-014 9.54166e-015
lhumerus -47.1728 -24.2286 110.197
lradius 50.9527
lwrist 22.065
lhand 24.1329 29.141
lfingers 7.12502
lthumb 48.3639 51.1822
rfemur -12.9603 -0.343516 14.2646
rtibia 29.6638
rfoot -14.621 -22.8486
rtoes -19.5195
lfemur -21.8324 4.68294 1.16758
ltibia 31.1703
lfoot -11.0504 -1.10598
ltoes 3.40222
2152
root 9.86458 16.6685 36.4592 -359.618 61.6904 350.163
lowerback -2.72259 -4.64342 3.04626
upperback -0.910533 -6.2627 -0.520553
thorax 0.200332 -3.13882 -2.38562
lowerneck -3.4605 -4.73264 1.362
upperneck -1.3557 -6.33904 4.27948
head 0.254349 -3.14461 1.00117
rclavicle 6.57977e-014 -8.74653e-015
rhumerus 12.4637 -24.3471 -2.48879
rradius 35.4651
rwrist -5.93353
rhand -35.7057 -43.0473
rfingers 7.12502
rthumb -8.82585 -72.8427
lclavicle 6.57977e-014 -8.74653e-015
lhumerus -47.003 -24.5762 110.345
lradius 50.9352
lwrist 22.2599
lhand 24.3325 29.1636
lfingers 7.12502
lthumb 48.5476 51.1168
rfemur -12.9606 -0.152269 14.2573
rtibia 29.7388
rfoot -14.6071 -22.8629
rtoes -19.3541
lfemur -21.431 3.81596 1.22585
ltibia 30.8597
lfoot -11.0983 0.0093088
ltoes 3.74749
2153
root 9.85951 16.6721 36.4803 -359.452 61.3931 350.48
lowerback -2.72956 -4.53122 2.74367
upperback -0.859063 -6.1063 -0.490924
thorax 0.301994 -3.05756 -2.1914
lowerneck -3.5667 -4.72769 1.17259
upperneck -1.07713 -6.34146 4.26515
head 0.363483 -3.13901 1.02106
rclavicle 5.96354e-016 9.54166e-015
rhumerus 13.2471 -25.1538 -3.30393
rradius 35.3735
rwrist -8.0284
rhand -36.2627 -44.1799
rfingers 7.12502
rthumb -9.3633 -73.9519
lclavicle 5.96354e-016 9.54166e-015
lhumerus -46.8593 -25.1408 110.605
lradius 50.8629
lwrist 21.8201
lhand 24.7219 29.0147
lfingers 7.12502
lthumb 48.9057 50.7936
rfemur -12.9541 -0.0801715 14.1769
rtibia 29.86
rfoot -14.5822 -22.7005
rtoes -19.442
lfemur -20.9309 2.9769 1.22464
ltibia 30.5439
lfoot -11.1763 1.18487
ltoes 4.24427
2154
root 9.85538 16.6732 36.4988 -359.341 61.0267 350.796
lowerback -2.63277 -4.37758 2.4433
upperback -0.834881 -5.89164 -0.465441
thorax 0.318301 -2.94915 -1.99037
lowerneck -3.64986 -4.77588 1.10477
upperneck -0.766152 -6.4189 4.15996
head 0.472744 -3.17194 0.992176
rclavicle -1.45113e-014 -2.22639e-014
rhumerus 13.863 -25.6595 -3.92785
rradius 35.5214
rwrist -12.2526
rhand -37.2337 -45.1315
rfingers 7.12502
rthumb -10.3001 -74.8593
lclavicle -1.45113e-014 -2.22639e-014
lhumerus -46.6942 -25.8068 110.95
lradius 50.6842
lwrist 21.1025
lhand 25.3435 28.633
lfingers 7.12502
lthumb 49.4763 50.1264
rfemur -12.9124 -0.0744749 14.0782
rtibia 30.0056
rfoot -14.645 -22.3722
rtoes -19.408
lfemur -20.323 2.01534 1.24883
ltibia 30.2205
lfoot -11.3825 2.33234
ltoes 6.06501
2155
root 9.85057 16.6712 36.5149 -359.294 60.6448 351.039
lowerback -2.47162 -4.20817 2.18676
upperback -0.844303 -5.65579 -0.44512
thorax 0.25797 -2.83163 -1.81097
lowerneck -3.72145 -4.833 0.962157
upperneck -0.459895 -6.50515 4.22042
head 0.588254 -3.20795 1.02675
rclavicle -5.43676e-014 -5.56597e-015
rhumerus 14.3149 -25.9882 -4.43925
rradius 35.7034
rwrist -16.5749
rhand -38.4532 -46.0322
rfingers 7.12502
rthumb -11.4764 -75.698
lclavicle -5.43676e-014 -5.56597e-015
lhumerus -46.5841 -26.515 111.309
lradius 50.5537
lwrist 20.1901
lhand 26.053 28.3098
lfingers 7.12502
lthumb 50.1261 49.4661
rfemur -12.8823 -0.153066 14.0019
rtibia 30.15
rfoot -14.6393 -21.9922
rtoes -19.6839
lfemur -19.7566 1.29286 1.22956
ltibia 29.924
lfoot -11.5137 3.55217
ltoes 5.55776
2156
root 9.84741 16.6691 36.5297 -359.361 60.2839 351.143
lowerback -2.34728 -3.97098 2.1042
upperback -0.846773 -5.33458 -0.524232
thorax 0.201169 -2.67178 -1.83064
lowerneck -3.64221 -4.96298 1.06712
upperneck -0.354861 -6.68588 4.29293
head 0.609667 -3.29639 1.02917
rclavicle -1.88845e-014 -3.18055e-015
rhumerus 14.4428 -26.4974 -4.89506
rradius 35.7406
rwrist -19.8194
rhand -38.8453 -46.0543
rfingers 7.12502
rthumb -11.8545 -75.6988
lclavicle -1.88845e-014 -3.18055e-015
lhumerus -46.6021 -27.3383 111.581
lradius 50.4714
lwrist 19.1209
lhand 26.9962 27.626
lfingers 7.12502
lthumb 50.9873 48.3145
rfemur -12.8453 -0.270669 13.9829
rtibia 30.2718
rfoot -14.7407 -21.5296
rtoes -19.6408
lfemur -19.2179 0.619173 1.27725
ltibia 29.6578
lfoot -11.6737 4.63899
ltoes 5.21657
2157
root 9.84544 16.6666 36.544 -359.524 59.9466 351.099
lowerback -2.2325 -3.78571 2.05902
upperback -0.829744 -5.08477 -0.492306
thorax 0.173154 -2.54694 -1.76144
lowerneck -3.7514 -5.01943 0.858026
upperneck -0.258376 -6.76213 4.55551
head 0.677805 -3.32819 1.13912
rclavicle 1.09133e-013 -2.38542e-015
rhumerus 14.746 -26.9677 -5.3027
rradius 35.472
rwrist -20.9787
rhand -38.7774 -46.1352
rfingers 7.12502
rthumb -11.789 -75.7834
lclavicle 1.09133e-013 -2.38542e-015
lhumerus -46.2567 -27.8192 111.776
lradius 50.1994
lwrist 17.9655
lhand 28.0517 27.016
lfingers 7.12502
lthumb 51.9471 47.153
rfemur -12.8205 -0.483002 14.0435
rtibia 30.3661
rfoot -14.7479 -21.0497
rtoes -19.842
lfemur -18.7314 -0.0225539 1.40505
ltibia 29.4197
lfoot -11.8453 5.60767
ltoes 5.1077
2158
root 9.8444 16.6632 36.5577 -359.753 59.6591 350.981
lowerback -2.10745 -3.579 2.09983
upperback -0.844387 -4.80731 -0.511738
thorax 0.0958711 -2.40943 -1.79001
lowerneck -3.70532 -5.10513 1.05297
upperneck -0.265008 -6.88228 4.54797
head 0.662517 -3.38867 1.10365
rclavicle 6.81831e-014 -2.38542e-015
rhumerus 14.7558 -27.3223 -5.55572
rradius 35.0804
rwrist -20.4852
rhand -38.0234 -46.0727
rfingers 7.12502
rthumb -11.0619 -75.7612
lclavicle 6.81831e-014 -2.38542e-015
lhumerus -46.1427 -28.1801 111.931
lradius 50.1033
lwrist 16.9558
lhand 28.9959 26.6767
lfingers 7.12502
lthumb 52.802 46.2937
rfemur -12.7455 -0.713831 14.1396
rtibia 30.4159
rfoot -14.8187 -20.5848
rtoes -19.9516
lfemur -18.2679 -0.600591 1.57114
ltibia 29.1903
lfoot -12.0408 6.38205
ltoes 5.48292
2159
root 9.84324 16.661 36.5716 -359.956 59.4467 350.848
lowerback -2.02505 -3.38901 2.1472
upperback -0.873016 -4.55282 -0.529799
thorax 0.0270945 -2.28344 -1.82443
lowerneck -3.67151 -5.1631 0.936581
upperneck -0.290299 -6.95594 4.8972
head 0.669573 -3.42214 1.23089
rclavicle -1.73638e-013 -6.36111e-015
rhumerus 14.493 -27.266 -5.53914
rradius 34.7311
rwrist -18.9676
rhand -37.1625 -45.8442
rfingers 7.12502
rthumb -10.2314 -75.5754
lclavicle -1.73638e-013 -6.36111e-015
lhumerus -46.1024 -28.4001 112.08
lradius 50.0411
lwrist 16.2917
lhand 29.6272 26.2825
lfingers 7.12502
lthumb 53.3715 45.5368
rfemur -12.6655 -0.85506 14.2455
rtibia 30.4161
rfoot -14.9279 -20.2117
rtoes -19.7876
lfemur -17.9042 -1.07877 1.7302
ltibia 28.9824
lfoot -12.1333 7.0482
ltoes 5.17286
2160
root 9.84288 16.6605 36.5865 -360.083 59.2848 350.79
lowerback -1.95389 -3.28334 2.11977
upperback -0.901017 -4.4097 -0.51449
thorax -0.0312936 -2.21266 -1.78612
lowerneck -3.66339 -5.16686 0.870468
upperneck -0.316036 -6.95822 5.07196
head 0.670232 -3.42173 1.29677
rclavicle 2.81777e-014 3.18055e-015
rhumerus 14.2242 -26.8456 -5.45638
rradius 34.4937
rwrist -17.1801
rhand -36.8479 -45.8692
rfingers 7.12502
rthumb -9.92789 -75.6151
lclavicle 2.81777e-014 3.18055e-015
lhumerus -45.9445 -28.2982 112.153
lradius 49.9339
lwrist 16.05
lhand 29.8253 26.3725
lfingers 7.12502
lthumb 53.5498 45.5104
rfemur -12.5543 -0.942834 14.3055
rtibia 30.3808
rfoot -15.1352 -19.8726
rtoes -19.416
lfemur -17.5611 -1.55223 1.85323
ltibia 28.7702
lfoot -12.2652 7.59175
ltoes 5.49028
